<svg xmlns="http://www.w3.org/2000/svg" version="1.1" xmlns:xlink="http://www.w3.org/1999/xlink" xmlns:svgjs="http://svgjs.dev/svgjs" width="100%" height="100%" viewBox="0 0 1000 600"><rect width="1000" height="600" x="0" y="0" fill="#191919"/><g><circle r="166.66666666666666" cx="386.58654276529944" cy="408.8086852819781" fill="#b88746" transform="matrix(0.5683890581022549,0,0,0.5683890581022548,0,67.63761606911433)"/><path d="M302.1288779998674 416.5352795214369L302.1288779998674 481.83833713474644L285.0149732460346 481.83833713474644L285.0149732460346 335.4694148980182L366.24972508741877 335.4694148980182L365.54602834589605 350.6129687755874L302.1288779998674 350.6129687755874L302.1288779998674 401.9828309067468L362.59050203150053 401.9828309067468L362.59050203150053 416.5352795214369L302.1288779998674 416.5352795214369ZM387.8109932476753 373.2720038526194L404.4463842172727 373.2720038526194L404.4463842172727 481.83833713474644L387.8109932476753 481.83833713474644L387.8109932476753 373.2720038526194ZM387.8109932476753 333.80869058802455L404.4463842172727 333.80869058802455L404.4463842172727 353.3996078720174L387.8109932476753 353.3996078720174L387.8109932476753 333.80869058802455ZM470.1435120058349 483.80868801101013L470.1435120058349 483.80868801101013Q454.1273741687775 483.80868801101013 447.40003331982024 476.01172811493825Q440.6726924708629 468.18662034920544 440.2786222956102 450.7630890291026L440.2786222956102 450.7630890291026L440.2786222956102 385.5444750247758L424.14989297990917 385.5444750247758L424.82544185177096 374.6793973356648L440.16603081696655 373.2720038526194L445.8237526188093 348.4455828116974L456.6888303079203 348.05151263644467L456.6888303079203 373.2720038526194L486.891494454076 373.2720038526194L486.891494454076 385.5444750247758L456.6888303079203 385.5444750247758L456.6888303079203 447.80756271470716Q456.6888303079203 460.1644774958463 460.4606448424821 465.2029461651491Q464.232459377044 470.2695627041128 473.32422127751767 470.2695627041128L473.32422127751767 470.2695627041128Q476.5893741581832 470.2695627041128 487.48259971695506 468.6651341334409L487.48259971695506 468.6651341334409L488.15814858881686 481.72574565610284Q476.3923390705568 483.80868801101013 470.1435120058349 483.80868801101013Z " fill="#191919" transform="matrix(0.5683890581022549,0,0,0.5683890581022548,0,67.63761606911433)"/><path d="M653.259320125954 417.9677366711183L653.259320125954 481.5874798422698L636.5865598466178 481.5874798422698L636.5865598466178 338.99150376899917L715.727326567283 338.99150376899917L715.0417689900075 353.7447028319645L653.259320125954 353.7447028319645L653.259320125954 403.79040597306425L712.1624271654512 403.79040597306425L712.1624271654512 417.9677366711183L653.259320125954 417.9677366711183ZM736.7328107349995 375.8196568202304L752.9393918617884 375.8196568202304L752.9393918617884 481.5874798422698L736.7328107349995 481.5874798422698L736.7328107349995 375.8196568202304ZM736.7328107349995 337.37358788662937L752.9393918617884 337.37358788662937L752.9393918617884 356.45951083797485L736.7328107349995 356.45951083797485L736.7328107349995 337.37358788662937ZM816.9430472762142 483.50704105864077L816.9430472762142 483.50704105864077Q801.3397568174273 483.50704105864077 794.7858263786752 475.91106310243003Q788.2318959399229 468.28766284312826 787.8479836966487 451.3132572297908L787.8479836966487 451.3132572297908L787.8479836966487 387.77578096791234L772.1350040254979 387.77578096791234L772.7931392996823 377.1907719747811L787.7382944842848 375.8196568202304L793.2501774055784 351.63318549395643L803.8351863987095 351.2492732506822L803.8351863987095 375.8196568202304L833.2593176153673 375.8196568202304L833.2593176153673 387.77578096791234L803.8351863987095 387.77578096791234L803.8351863987095 448.43391540523436Q803.8351863987095 460.47230646218935 807.5097750129055 465.3808987154808Q811.1843636271012 470.3169132718632 820.0417675254987 470.3169132718632L820.0417675254987 470.3169132718632Q823.2227546840563 470.3169132718632 833.8351859802785 468.75384199567543L833.8351859802785 468.75384199567543L834.4933212544629 481.4777906299057Q823.0307985624192 483.50704105864077 816.9430472762142 483.50704105864077ZM948.4604129007153 353.7447028319645L948.4604129007153 481.5874798422698L931.6779634090151 481.5874798422698L931.6779634090151 353.7447028319645L887.8022784633933 353.7447028319645L887.8022784633933 338.99150376899917L992.308675543246 338.99150376899917L992.308675543246 353.7447028319645L948.4604129007153 353.7447028319645ZM1033.8808870292225 470.7830924244105L1033.8808870292225 470.7830924244105Q1045.3434097212664 470.7830924244105 1054.0637021042087 464.4759627134773Q1062.783994487151 458.1688330025442 1065.3068463715242 447.4467124939579L1065.3068463715242 447.4467124939579L1065.3068463715242 429.6222154847991Q1064.813244915886 429.6222154847991 1059.4658958131383 430.1158169404373Q1054.1185467103908 430.5819960929845 1052.4732085249298 430.6916853053486L1052.4732085249298 430.6916853053486Q1031.5499912664866 432.5289796124465 1023.3233003391824 437.51983877501095Q1015.0691871087872 442.53812024066644 1015.0691871087872 453.61673068943594L1015.0691871087872 453.61673068943594Q1015.0691871087872 462.1176446476502 1020.0874685744427 466.45036853603034Q1025.1057500400984 470.7830924244105 1033.8808870292225 470.7830924244105ZM1081.4037382859492 481.5874798422698L1068.871745773356 481.5874798422698Q1067.4183637095323 475.41746164679176 1066.0746708580727 468.28766284312826L1066.0746708580727 468.28766284312826Q1057.2995338689482 477.0627998322526 1049.5938667003734 480.4357431124472Q1041.8607772287075 483.8086863926419 1031.4677243572135 483.8086863926419L1031.4677243572135 483.8086863926419Q1016.6048360818841 483.8086863926419 1007.6103206680316 476.048174617885Q998.5883829510881 468.28766284312826 998.5883829510881 453.7264199018L998.5883829510881 453.7264199018Q998.5883829510881 437.51983877501095 1010.8735747358623 429.73190469716315Q1023.1587665206364 421.91654831622424 1046.3031903294518 419.9969870998533L1046.3031903294518 419.9969870998533Q1049.4841774880094 419.69534176585216 1055.9009964113066 419.1743180071229Q1062.3178153346037 418.6258719453026 1065.4988024931613 418.3516489143925L1065.4988024931613 418.3516489143925L1065.4988024931613 409.0006435603568Q1065.4988024931613 397.8123438992233 1060.2885649058687 392.4101501902936Q1055.0783273185762 387.007956481364 1043.8900276574427 387.007956481364L1043.8900276574427 387.007956481364Q1028.2867371986558 387.007956481364 1012.3818014058679 394.71362364993877L1012.3818014058679 394.71362364993877Q1011.8881999502296 393.5618869201162 1009.8589495214947 388.02258169573145Q1007.8296990927597 382.4832764713467 1007.7474321834868 382.2913203497096L1007.7474321834868 382.2913203497096Q1014.7949640778772 378.3425087046037 1024.4750370690049 375.9841906387765Q1034.1551100601328 373.5984502698583 1044.1916729914437 373.5984502698583L1044.1916729914437 373.5984502698583Q1063.9357312169736 373.5984502698583 1072.683445903007 382.2364757435276Q1081.4037382859492 390.8745012171969 1081.4037382859492 411.6057623540031L1081.4037382859492 411.6057623540031L1081.4037382859492 481.5874798422698ZM1157.2812509387838 387.007956481364L1157.2812509387838 387.007956481364Q1141.9521835109072 387.007956481364 1133.8077594928761 397.5655431714042Q1125.635913171754 408.1231298614444 1125.635913171754 428.5527456642495L1125.635913171754 428.5527456642495Q1125.635913171754 470.3991801811363 1157.1715617264197 470.3991801811363L1157.1715617264197 470.3991801811363Q1164.9869181073586 470.3991801811363 1170.9101355750174 467.1633484163967Q1176.8333530426764 463.95493895474806 1180.2611409290532 458.1139883963622Q1183.6889288154298 452.2730378379763 1185.3616893039816 444.95128291267565Q1187.0618720956245 437.629527987375 1187.0618720956245 428.6624348766136L1187.0618720956245 428.6624348766136Q1187.0618720956245 416.5143546072946 1184.2099525741592 407.43757228416905Q1181.3854553557846 398.3882122641346 1174.5298795830313 392.71179552429476Q1167.674303810278 387.007956481364 1157.2812509387838 387.007956481364ZM1158.8991668211536 373.5984502698583L1158.8991668211536 373.5984502698583Q1172.9942306099344 373.5984502698583 1183.1953273597917 380.75567137661284Q1193.4238464127397 387.8854701802764 1198.5243947876681 400.1158173588684Q1203.6523654656878 412.3735868405515 1203.6523654656878 428.1688334209753L1203.6523654656878 428.1688334209753Q1203.6523654656878 444.5673706694015 1198.5792393938502 457.01709627272163Q1193.5061133220127 469.4393995729508 1183.2501719659735 476.62404298279637Q1172.9942306099344 483.8086863926419 1158.7072106995165 483.8086863926419L1158.7072106995165 483.8086863926419Q1148.2044686156582 483.8086863926419 1139.539020838898 479.2840063826246Q1130.8461507590468 474.7319040695164 1125.0600448068428 466.9439699916685L1125.0600448068428 466.9439699916685L1123.442128924473 481.5874798422698L1109.6487104696932 481.5874798422698L1109.6487104696932 334.7684690929831L1125.7456023841182 333.8086884847976L1125.7456023841182 368.7995472289309Q1125.7456023841182 381.71545198479834 1125.361690140844 390.9567681264699L1125.361690140844 390.9567681264699Q1130.9558399714108 382.97687792698497 1139.8680884759901 378.2876640984216Q1148.7803369805697 373.5984502698583 1158.8991668211536 373.5984502698583ZM1238.0673558449098 428.93665790752374L1238.0673558449098 428.93665790752374Q1238.0673558449098 447.748357827959 1246.403735984578 459.07376900454767Q1254.740116124246 470.3991801811363 1270.7547411293979 470.3991801811363L1270.7547411293979 470.3991801811363Q1286.5499877098218 470.3991801811363 1294.61214481858 459.1286136107297Q1302.6468796242468 447.8580470403231 1302.6468796242468 428.74470178588666L1302.6468796242468 428.74470178588666Q1302.6468796242468 409.38455580363103 1294.6944117278529 398.2511007486795Q1286.741943831459 387.117645693728 1270.4530957953968 387.117645693728L1270.4530957953968 387.117645693728Q1254.630426911882 387.117645693728 1246.348891378396 398.49790147649867Q1238.0673558449098 409.85073495617826 1238.0673558449098 428.93665790752374ZM1319.319639903583 428.6624348766136L1319.319639903583 428.6624348766136Q1319.319639903583 453.23281844616173 1306.2117790260786 468.5344635709473Q1293.1039181485742 483.8086863926419 1269.9594943397585 483.8086863926419L1269.9594943397585 483.8086863926419Q1247.6925842298556 483.8086863926419 1234.529878746169 468.3699297524013Q1221.3945955655736 452.95859541525164 1221.3945955655736 428.74470178588666L1221.3945955655736 428.74470178588666Q1221.3945955655736 404.0646290039744 1234.5847233523511 388.84525078846184Q1247.8022734422195 373.5984502698583 1270.837008038671 373.5984502698583L1270.837008038671 373.5984502698583Q1293.4878303918483 373.5984502698583 1306.4037351477157 388.9000953946439Q1319.319639903583 404.17431821633846 1319.319639903583 428.6624348766136ZM1350.0874639717003 361.0664577572651L1350.0874639717003 361.0664577572651L1342.1898406814885 355.77395326069944Q1345.5627839616832 346.3406809973908 1350.0874639717003 342.3644470491938Q1354.6121439817175 338.4156354040879 1360.3982499339215 338.4156354040879L1360.3982499339215 338.4156354040879Q1364.7309738223014 338.4156354040879 1370.6541912899604 340.746531166824Q1376.6048310607105 343.05000462646916 1382.2812478005503 345.3534780861143Q1387.9850868434812 347.6843738488505 1391.933898488587 347.6843738488505L1391.933898488587 347.6843738488505Q1399.913788688072 347.6843738488505 1403.972289545542 338.22367928245075L1403.972289545542 338.22367928245075L1412.2538250790283 341.7063117750095Q1408.8808817988336 352.89461143614307 1404.027134151724 357.36444683997826Q1399.1459642015236 361.8617045469045 1392.8936790967725 361.8617045469045L1392.8936790967725 361.8617045469045Q1388.4512659960285 361.8617045469045 1382.4732039221874 359.64049799653236Q1376.4951418483465 357.4192914461603 1370.7638805023246 355.1432402896062Q1365.0326191563026 352.89461143614307 1361.2757636328338 352.89461143614307L1361.2757636328338 352.89461143614307Q1353.8443194951692 352.89461143614307 1350.0874639717003 361.0664577572651ZM1371.0929481394166 470.7830924244105L1371.0929481394166 470.7830924244105Q1382.5828931345516 470.7830924244105 1391.3031855174938 464.4759627134773Q1400.023477900436 458.1688330025442 1402.5189074817183 447.4467124939579L1402.5189074817183 447.4467124939579L1402.5189074817183 429.6222154847991Q1402.052728329171 429.6222154847991 1396.7053792264235 430.1158169404373Q1391.358030123676 430.5819960929845 1389.7126919382151 430.6916853053486L1389.7126919382151 430.6916853053486Q1368.7894746797717 432.5289796124465 1360.5353614493765 437.51983877501095Q1352.3086705220724 442.53812024066644 1352.3086705220724 453.61673068943594L1352.3086705220724 453.61673068943594Q1352.3086705220724 462.1176446476502 1357.3269519877279 466.45036853603034Q1362.3178111502923 470.7830924244105 1371.0929481394166 470.7830924244105ZM1418.6157993961435 481.5874798422698L1406.0838068835503 481.5874798422698Q1404.6578471228174 475.41746164679176 1403.2867319682666 468.28766284312826L1403.2867319682666 468.28766284312826Q1394.5390172822333 477.0627998322526 1386.8059278105675 480.4357431124472Q1379.1002606419927 483.8086863926419 1368.6797854674076 483.8086863926419L1368.6797854674076 483.8086863926419Q1353.8443194951692 483.8086863926419 1344.8223817782257 476.048174617885Q1335.8278663643734 468.28766284312826 1335.8278663643734 453.7264199018L1335.8278663643734 453.7264199018Q1335.8278663643734 437.51983877501095 1348.1130581491473 429.73190469716315Q1360.3982499339215 421.91654831622424 1383.542673742737 419.9969870998533L1383.542673742737 419.9969870998533Q1386.7236609012946 419.69534176585216 1393.1404798245917 419.1743180071229Q1399.5298764447978 418.6258719453026 1402.7108636033554 418.3516489143925L1402.7108636033554 418.3516489143925L1402.7108636033554 409.0006435603568Q1402.7108636033554 397.8123438992233 1397.5280483191539 392.4101501902936Q1392.3178107318613 387.007956481364 1381.1295110707276 387.007956481364L1381.1295110707276 387.007956481364Q1365.4987983088502 387.007956481364 1349.5938625160622 394.71362364993877L1349.5938625160622 394.71362364993877Q1349.127683363515 393.5618869201162 1347.09843293478 388.02258169573145Q1345.069182506045 382.4832764713467 1344.9869155967717 382.2913203497096L1344.9869155967717 382.2913203497096Q1352.0070251880713 378.3425087046037 1361.6870981791992 375.9841906387765Q1371.3945934734177 373.5984502698583 1381.403734101638 373.5984502698583L1381.403734101638 373.5984502698583Q1401.1752146302586 373.5984502698583 1409.8955070132008 382.2364757435276Q1418.6157993961435 390.8745012171969 1418.6157993961435 411.6057623540031L1418.6157993961435 411.6057623540031L1418.6157993961435 481.5874798422698ZM1458.158760453385 428.93665790752374L1458.158760453385 428.93665790752374Q1458.158760453385 447.748357827959 1466.495140593053 459.07376900454767Q1474.8315207327212 470.3991801811363 1490.846145737873 470.3991801811363L1490.846145737873 470.3991801811363Q1506.641392318297 470.3991801811363 1514.7035494270547 459.1286136107297Q1522.7382842327218 447.8580470403231 1522.7382842327218 428.74470178588666L1522.7382842327218 428.74470178588666Q1522.7382842327218 409.38455580363103 1514.7858163363278 398.2511007486795Q1506.8333484399343 387.117645693728 1490.5445004038718 387.117645693728L1490.5445004038718 387.117645693728Q1474.749253823448 387.117645693728 1466.440295986871 398.49790147649867Q1458.158760453385 409.85073495617826 1458.158760453385 428.93665790752374ZM1539.438466815149 428.6624348766136L1539.438466815149 428.6624348766136Q1539.438466815149 453.23281844616173 1526.3031836345535 468.5344635709473Q1513.195322757049 483.8086863926419 1490.0783212513247 483.8086863926419L1490.0783212513247 483.8086863926419Q1467.7839888383307 483.8086863926419 1454.648705657735 468.3699297524013Q1441.4860001740487 452.95859541525164 1441.4860001740487 428.74470178588666L1441.4860001740487 428.74470178588666Q1441.4860001740487 404.0646290039744 1454.676127960826 388.84525078846184Q1467.8936780506945 373.5984502698583 1490.9284126471462 373.5984502698583L1490.9284126471462 373.5984502698583Q1513.5792350003233 373.5984502698583 1526.4951397561906 388.9000953946439Q1539.438466815149 404.17431821633846 1539.438466815149 428.6624348766136Z " fill="#b88746" transform="matrix(0.5683890581022549,0,0,0.5683890581022548,0,67.63761606911433)"/></g></svg>